HIERARCHY
ROOT Hips
{
	OFFSET 0.000000 83.214638 0.000000
	CHANNELS 6 Xposition Yposition Zposition Xrotation Yrotation Zrotation
	JOINT Pelvis
	{
		OFFSET 0.000000 0.000000 0.000000
		CHANNELS 3 Xrotation Yrotation Zrotation
		JOINT LeftUpLeg
		{
			OFFSET 8.479700 -4.795502 -0.379100
			CHANNELS 3 Xrotation Yrotation Zrotation
			JOINT LeftLeg
			{
				OFFSET 0.024144 -32.555107 0.112900
				CHANNELS 3 Xrotation Yrotation Zrotation
				JOINT LeftFoot
				{
					OFFSET -0.024144 -32.638630 -3.012600
					CHANNELS 3 Xrotation Yrotation Zrotation
					JOINT LeftToeBase
					{
						OFFSET 0.970200 -13.225400 11.864200
						CHANNELS 3 Xrotation Yrotation Zrotation
						End Site
						{
							OFFSET 0.000000 12.319262 0.000000
						}
					}
					JOINT LFootTongue
					{
						OFFSET 1.142400 -1.059800 6.665200
						CHANNELS 3 Xrotation Yrotation Zrotation
						End Site
						{
							OFFSET 0.000000 12.319262 0.000000
						}
					}
				}
				JOINT LeftPantLeg
				{
					OFFSET 0.918482 -16.533964 -2.284700
					CHANNELS 3 Xrotation Yrotation Zrotation
					End Site
					{
						OFFSET 0.350399 24.744368 0.000000
					}
				}
			}
		}
		JOINT RightUpLeg
		{
			OFFSET -8.479700 -4.795502 -0.379100
			CHANNELS 3 Xrotation Yrotation Zrotation
			JOINT RightLeg
			{
				OFFSET -0.023144 -32.555092 0.112900
				CHANNELS 3 Xrotation Yrotation Zrotation
				JOINT RightFoot
				{
					OFFSET 0.023144 -32.638641 -3.012700
					CHANNELS 3 Xrotation Yrotation Zrotation
					JOINT RightToeBase
					{
						OFFSET -0.970200 -13.225400 11.864200
						CHANNELS 3 Xrotation Yrotation Zrotation
						End Site
						{
							OFFSET 0.000000 12.319244 0.000000
						}
					}
					JOINT RFootTongue
					{
						OFFSET -1.142200 -1.059800 6.665200
						CHANNELS 3 Xrotation Yrotation Zrotation
						End Site
						{
							OFFSET 0.000000 12.319243 0.000000
						}
					}
				}
				JOINT RightPantLeg
				{
					OFFSET -0.919482 -16.533978 -2.284800
					CHANNELS 3 Xrotation Yrotation Zrotation
					End Site
					{
						OFFSET -0.350400 24.744419 0.000000
					}
				}
			}
		}
	}
	JOINT Spine
	{
		OFFSET 0.000000 7.722000 1.166200
		CHANNELS 3 Xrotation Yrotation Zrotation
		JOINT Spine1
		{
			OFFSET 0.000000 12.024101 0.248800
			CHANNELS 3 Xrotation Yrotation Zrotation
			JOINT Spine2
			{
				OFFSET 0.000000 11.502998 -0.491200
				CHANNELS 3 Xrotation Yrotation Zrotation
				JOINT Neck
				{
					OFFSET 0.000000 18.430702 -3.123100
					CHANNELS 3 Xrotation Yrotation Zrotation
					JOINT Head
					{
						OFFSET 0.000000 9.051102 1.034000
						CHANNELS 3 Xrotation Yrotation Zrotation
						JOINT HairB
						{
							OFFSET 0.208400 24.786102 24.822300
							CHANNELS 3 Xrotation Yrotation Zrotation
							End Site
							{
								OFFSET 0.000000 32.263779 0.000000
							}
						}
						JOINT HairA
						{
							OFFSET -7.081100 24.428299 23.196600
							CHANNELS 3 Xrotation Yrotation Zrotation
							End Site
							{
								OFFSET 0.000000 32.263779 0.000000
							}
						}
						JOINT Hat
						{
							OFFSET 16.728800 15.048294 -15.439601
							CHANNELS 3 Xrotation Yrotation Zrotation
							End Site
							{
								OFFSET 0.000000 32.263779 0.000000
							}
						}
					}
				}
				JOINT LeftShoulder
				{
					OFFSET 6.197800 13.665199 -4.064700
					CHANNELS 3 Xrotation Yrotation Zrotation
					JOINT LeftArm
					{
						OFFSET 7.778100 -0.187103 -1.709300
						CHANNELS 3 Xrotation Yrotation Zrotation
						JOINT LeftForeArm
						{
							OFFSET 22.049376 0.000000 0.000000
							CHANNELS 3 Xrotation Yrotation Zrotation
							JOINT LeftHand
							{
								OFFSET 23.009392 0.000000 0.000000
								CHANNELS 3 Xrotation Yrotation Zrotation
								JOINT LeftHandThumb1
								{
									OFFSET 3.507191 -2.063065 3.133727
									CHANNELS 3 Xrotation Yrotation Zrotation
									JOINT LeftHandThumb2
									{
										OFFSET 3.101337 -1.790558 1.790558
										CHANNELS 3 Xrotation Yrotation Zrotation
										JOINT LeftHandThumb3
										{
											OFFSET 3.058640 -1.765907 1.765906
											CHANNELS 3 Xrotation Yrotation Zrotation
											End Site
											{
												OFFSET -0.415260 3.926476 -0.049563
											}
										}
									}
								}
								JOINT LeftHandIndex1
								{
									OFFSET 11.334419 -0.901459 3.706815
									CHANNELS 3 Xrotation Yrotation Zrotation
									JOINT LeftHandIndex2
									{
										OFFSET 3.283112 0.000000 0.000000
										CHANNELS 3 Xrotation Yrotation Zrotation
										JOINT LeftHandIndex3
										{
											OFFSET 3.323853 0.000000 0.000000
											CHANNELS 3 Xrotation Yrotation Zrotation
											End Site
											{
												OFFSET -1.135597 3.097809 0.402452
											}
										}
									}
								}
								JOINT LeftHandMiddle1
								{
									OFFSET 11.335861 0.000000 0.000000
									CHANNELS 3 Xrotation Yrotation Zrotation
									JOINT LeftHandMiddle2
									{
										OFFSET 3.410492 0.000000 0.000000
										CHANNELS 3 Xrotation Yrotation Zrotation
										JOINT LeftHandMiddle3
										{
											OFFSET 3.312172 0.000000 0.000000
											CHANNELS 3 Xrotation Yrotation Zrotation
											End Site
											{
												OFFSET -1.150200 3.080154 0.400270
											}
										}
									}
								}
								JOINT LeftHandRing1
								{
									OFFSET 11.514786 -0.013176 -3.003090
									CHANNELS 3 Xrotation Yrotation Zrotation
									JOINT LeftHandRing2
									{
										OFFSET 3.053307 0.000000 0.000000
										CHANNELS 3 Xrotation Yrotation Zrotation
										JOINT LeftHandRing3
										{
											OFFSET 3.295807 0.000000 0.000000
											CHANNELS 3 Xrotation Yrotation Zrotation
											End Site
											{
												OFFSET -1.281006 3.013344 0.375733
											}
										}
									}
								}
								JOINT LeftHandPinky1
								{
									OFFSET 10.518692 -0.960396 -5.730441
									CHANNELS 3 Xrotation Yrotation Zrotation
									JOINT LeftHandPinky2
									{
										OFFSET 2.861649 0.000000 0.000000
										CHANNELS 3 Xrotation Yrotation Zrotation
										JOINT LeftHandPinky3
										{
											OFFSET 2.863380 0.000000 0.000000
											CHANNELS 3 Xrotation Yrotation Zrotation
											End Site
											{
												OFFSET -0.843597 2.711159 0.369971
											}
										}
									}
								}
							}
							JOINT LSleeve
							{
								OFFSET 6.676277 -0.344902 -1.011730
								CHANNELS 3 Xrotation Yrotation Zrotation
								End Site
								{
									OFFSET 0.000000 14.885353 0.000000
								}
							}
						}
					}
				}
				JOINT RightShoulder
				{
					OFFSET -6.197800 13.665199 -4.064700
					CHANNELS 3 Xrotation Yrotation Zrotation
					JOINT RightArm
					{
						OFFSET -7.778100 -0.187103 -1.709300
						CHANNELS 3 Xrotation Yrotation Zrotation
						JOINT RightForeArm
						{
							OFFSET -22.049376 0.000000 0.000000
							CHANNELS 3 Xrotation Yrotation Zrotation
							JOINT RightHand
							{
								OFFSET -23.009392 0.000000 0.000000
								CHANNELS 3 Xrotation Yrotation Zrotation
								JOINT RightHandThumb1
								{
									OFFSET -3.507191 -2.063065 3.133727
									CHANNELS 3 Xrotation Yrotation Zrotation
									JOINT RightHandThumb2
									{
										OFFSET -3.101337 -1.790558 1.790558
										CHANNELS 3 Xrotation Yrotation Zrotation
										JOINT RightHandThumb3
										{
											OFFSET -3.058640 -1.765907 1.765906
											CHANNELS 3 Xrotation Yrotation Zrotation
											End Site
											{
												OFFSET 0.415260 3.926476 -0.049563
											}
										}
									}
								}
								JOINT RightHandIndex1
								{
									OFFSET -11.334419 -0.901459 3.706815
									CHANNELS 3 Xrotation Yrotation Zrotation
									JOINT RightHandIndex2
									{
										OFFSET -3.283112 0.000000 0.000000
										CHANNELS 3 Xrotation Yrotation Zrotation
										JOINT RightHandIndex3
										{
											OFFSET -3.323853 0.000000 0.000000
											CHANNELS 3 Xrotation Yrotation Zrotation
											End Site
											{
												OFFSET 1.135597 3.097809 0.402452
											}
										}
									}
								}
								JOINT RightHandMiddle1
								{
									OFFSET -11.335861 0.000000 0.000000
									CHANNELS 3 Xrotation Yrotation Zrotation
									JOINT RightHandMiddle2
									{
										OFFSET -3.410492 0.000000 0.000000
										CHANNELS 3 Xrotation Yrotation Zrotation
										JOINT RightHandMiddle3
										{
											OFFSET -3.312172 0.000000 0.000000
											CHANNELS 3 Xrotation Yrotation Zrotation
											End Site
											{
												OFFSET 1.150200 3.080154 0.400270
											}
										}
									}
								}
								JOINT RightHandRing1
								{
									OFFSET -11.514786 -0.013176 -3.003090
									CHANNELS 3 Xrotation Yrotation Zrotation
									JOINT RightHandRing2
									{
										OFFSET -3.053307 0.000000 0.000000
										CHANNELS 3 Xrotation Yrotation Zrotation
										JOINT RightHandRing3
										{
											OFFSET -3.295807 0.000000 0.000000
											CHANNELS 3 Xrotation Yrotation Zrotation
											End Site
											{
												OFFSET 1.281006 3.013344 0.375733
											}
										}
									}
								}
								JOINT RightHandPinky1
								{
									OFFSET -10.518692 -0.960396 -5.730441
									CHANNELS 3 Xrotation Yrotation Zrotation
									JOINT RightHandPinky2
									{
										OFFSET -2.861649 0.000000 0.000000
										CHANNELS 3 Xrotation Yrotation Zrotation
										JOINT RightHandPinky3
										{
											OFFSET -2.863380 0.000000 0.000000
											CHANNELS 3 Xrotation Yrotation Zrotation
											End Site
											{
												OFFSET 0.843597 2.711159 0.369971
											}
										}
									}
								}
							}
							JOINT RSleeve
							{
								OFFSET -6.676277 -0.344902 -1.011730
								CHANNELS 3 Xrotation Yrotation Zrotation
								End Site
								{
									OFFSET 0.000000 14.885353 0.000000
								}
							}
						}
					}
				}
				JOINT Backpack
				{
					OFFSET 0.000000 -2.471497 36.677502
					CHANNELS 3 Xrotation Yrotation Zrotation
					End Site
					{
						OFFSET 0.000000 20.427315 0.000000
					}
				}
				JOINT Hood
				{
					OFFSET 0.000000 18.754097 -10.431000
					CHANNELS 3 Xrotation Yrotation Zrotation
					JOINT Hood1
					{
						OFFSET 0.000000 -5.011002 -7.685901
						CHANNELS 3 Xrotation Yrotation Zrotation
						End Site
						{
							OFFSET 0.000000 9.175140 0.000000
						}
					}
				}
				JOINT LHoodieString
				{
					OFFSET 5.250500 16.397697 3.089900
					CHANNELS 3 Xrotation Yrotation Zrotation
					JOINT LHoodieString1
					{
						OFFSET 0.257700 -6.364304 3.694600
						CHANNELS 3 Xrotation Yrotation Zrotation
						JOINT LHoodieString2
						{
							OFFSET 0.000000 -9.643799 2.679100
							CHANNELS 3 Xrotation Yrotation Zrotation
							End Site
							{
								OFFSET 0.000000 10.009018 0.000000
							}
						}
					}
				}
				JOINT RHoodieString
				{
					OFFSET -5.250500 16.397697 3.089900
					CHANNELS 3 Xrotation Yrotation Zrotation
					JOINT RHoodieString1
					{
						OFFSET -0.257700 -6.364304 3.694600
						CHANNELS 3 Xrotation Yrotation Zrotation
						JOINT RHoodieString2
						{
							OFFSET 0.000000 -9.643799 2.679100
							CHANNELS 3 Xrotation Yrotation Zrotation
							End Site
							{
								OFFSET 0.000000 10.009018 0.000000
							}
						}
					}
				}
			}
			JOINT LBackpack_Strap
			{
				OFFSET 15.223200 -7.719803 -6.610900
				CHANNELS 3 Xrotation Yrotation Zrotation
				End Site
				{
					OFFSET 0.000000 16.040596 0.000000
				}
			}
			JOINT RBackpack_Strap
			{
				OFFSET -15.223000 -7.719803 -6.610900
				CHANNELS 3 Xrotation Yrotation Zrotation
				End Site
				{
					OFFSET 0.000000 16.040596 0.000000
				}
			}
		}
	}
	JOINT BoyFacialAnim_Joint
	{
		OFFSET 1.000000 -82.208099 -1.550900
		CHANNELS 3 Xrotation Yrotation Zrotation
		End Site
		{
			OFFSET 0.000000 30.012791 0.000000
		}
	}
}
MOTION
Frames: 4
Frame Time: 0.033333
1.639479 74.556305 162.014694 28.123821 15.294315 0.575968 0.000000 0.000000 0.000000 -0.327867 8.725487 -3.397313 -0.156195 -9.890516 1.236802 -19.514300 -11.242340 -3.893718 -0.000000 0.000000 0.000000 -0.000000 0.000000 0.000000 -0.000001 -0.000001 0.000000 -67.316330 2.854064 -9.537798 52.847574 -9.312793 0.279974 -13.326468 -6.086580 3.133360 -0.000000 -0.000000 -0.000000 -0.000000 -0.000000 -0.000000 0.000002 0.000000 0.000000 13.574456 1.800687 1.806899 0.436343 0.392353 -0.738088 0.440826 0.372977 -0.747510 -3.129419 -1.864095 -2.638898 -12.030049 -15.574271 10.772656 -0.000002 -0.000000 -0.000000 -0.000002 -0.000000 -0.000000 -0.000002 -0.000000 -0.000000 -0.112166 12.802146 -4.665912 -64.984291 -65.209728 -60.339537 -0.000078 -81.926965 -0.000030 42.341545 25.225251 49.177741 -3.555733 1.099083 4.270494 4.098586 8.738500 0.606986 -0.000000 0.000000 0.000001 -0.850457 0.865296 -34.301118 0.292053 1.987815 -16.714463 -0.000001 -0.000001 -0.000004 2.678069 5.728302 -39.264275 0.126503 1.316485 -10.977699 -0.000000 -0.000001 0.000000 1.560795 4.371814 -40.280197 0.056449 0.881703 -7.326577 -0.000000 -0.000001 -0.000002 2.887694 5.979003 -39.337774 -0.013301 -3.851922 -2.187670 0.000001 0.000001 0.000002 0.000000 0.000001 -0.000002 -1.545883 -19.016131 -1.553569 -21.738747 16.841998 19.505514 0.000008 109.084241 -0.000003 38.412786 -17.838620 -68.322273 -9.879697 -5.323495 -6.062767 11.846839 -26.397517 1.333100 0.000002 0.000001 -0.000003 8.652995 -15.144107 33.075676 1.302921 -4.057308 35.594247 -0.000001 0.000001 0.000000 9.952791 -18.195411 30.988244 1.305424 -4.060795 35.629600 -0.000000 0.000000 -0.000000 8.199952 -15.154475 31.418467 0.953480 -3.519395 30.309203 0.000001 -0.000001 0.000002 9.765249 -19.923978 27.652984 0.882606 -3.395476 29.133929 0.000001 0.000000 0.000000 0.000002 -0.000002 -0.000000 -0.000002 0.000001 0.000001 -0.000002 0.000001 0.000001 -0.000002 0.000001 0.000001 -0.000002 0.000001 0.000001 -0.000002 0.000001 0.000000 -0.000000 -0.000001 0.000001 -0.000002 0.000001 0.000001 -0.000002 0.000001 0.000000 -0.000000 -0.000001 0.000001 0.000001 -0.000000 0.000000 0.000001 -0.000000 0.000000 0.000000 0.000000 0.000000 
1.272882 74.127701 164.473816 28.698262 15.527836 0.029534 -0.000001 -0.000001 0.000000 1.082913 9.219172 -2.489168 -1.280348 -9.787273 1.904483 -17.988555 -12.296117 -4.995473 0.000001 0.000000 -0.000000 0.000001 0.000000 -0.000000 -0.000002 0.000001 0.000001 -66.971145 2.140602 -9.108390 55.334935 -9.290061 0.813385 -16.065829 -6.364066 2.756989 -0.000000 -0.000000 -0.000000 -0.000000 -0.000000 -0.000000 -0.000002 -0.000000 0.000000 12.346521 1.958920 1.992685 0.307373 0.419219 -0.725699 0.312348 0.402105 -0.735222 -3.377571 -1.939370 -2.670431 -11.895518 -15.904058 10.635761 0.000002 0.000000 0.000001 0.000002 0.000000 0.000001 0.000002 0.000000 0.000001 -0.123529 13.097180 -4.696180 -62.850554 -65.713441 -58.431155 0.000164 -82.057182 0.000179 41.718099 24.778314 49.389696 -3.531301 1.117843 4.254693 4.097753 8.734415 0.607712 -0.000000 0.000000 0.000002 -0.854946 0.812928 -33.900138 0.274540 1.928617 -16.202073 0.000001 0.000001 -0.000002 2.572917 5.634181 -38.527612 0.102573 1.186464 -9.881794 0.000002 -0.000000 -0.000002 1.472778 4.263933 -39.523351 0.047657 0.810435 -6.731619 -0.000001 0.000000 -0.000004 2.901077 5.986434 -39.492147 -0.013531 -3.857637 -2.140651 0.000002 0.000003 0.000000 0.000002 0.000000 -0.000001 -1.566891 -19.234578 -1.557895 -20.719591 16.636331 19.573176 0.000000 110.394859 -0.000005 38.644958 -18.207578 -67.422307 -10.000830 -5.115904 -6.094908 11.969946 -26.664920 1.365820 0.000000 0.000001 -0.000001 8.436721 -14.962866 32.728661 1.298463 -4.051079 35.531156 -0.000000 0.000001 0.000000 9.815332 -18.030033 30.882004 1.304381 -4.059325 35.614864 -0.000000 0.000000 0.000003 8.102256 -15.029048 31.348205 0.953017 -3.518618 30.301704 0.000000 -0.000000 0.000006 9.739697 -19.878584 27.649939 0.882157 -3.394676 29.126300 -0.000000 0.000001 -0.000001 -0.000001 0.000002 0.000002 -0.000003 -0.000000 -0.000002 -0.000003 -0.000000 -0.000002 -0.000003 -0.000000 -0.000002 -0.000003 -0.000000 -0.000002 -0.000003 -0.000000 -0.000001 -0.000001 0.000001 0.000001 -0.000003 -0.000000 -0.000002 -0.000003 -0.000000 -0.000001 -0.000001 0.000001 0.000001 0.000003 0.000000 0.000000 0.000003 0.000000 0.000000 -0.000001 -0.000001 0.000000 
0.857453 73.809433 167.017990 29.205295 15.383601 -0.460095 0.000001 -0.000000 0.000000 0.561898 9.727310 -1.212422 1.231104 -9.768656 2.572546 -17.071383 -12.995108 -6.108025 0.000000 -0.000000 0.000000 0.000000 -0.000000 -0.000000 0.000001 -0.000000 -0.000000 -66.088412 1.351180 -8.363189 57.217253 -9.310597 1.301901 -19.259279 -6.576256 2.264421 -0.000000 -0.000000 -0.000000 -0.000000 -0.000000 -0.000000 0.000001 -0.000000 0.000000 11.177812 2.034669 1.915051 0.203706 0.433043 -0.684449 0.208661 0.418713 -0.693670 -3.516828 -2.038687 -2.388238 -11.205891 -15.940774 10.541156 0.000001 -0.000000 0.000000 0.000001 -0.000000 0.000000 0.000001 -0.000000 0.000000 -0.143407 13.799368 -4.812804 -60.924229 -66.350486 -56.986881 -0.000064 -82.207590 -0.000063 41.067557 24.513506 49.799763 -3.506863 1.140792 4.214031 4.087952 8.686663 0.616213 0.000000 -0.000001 0.000001 -0.896697 0.575024 -32.426593 0.228037 1.760791 -14.757758 0.000002 -0.000003 -0.000002 2.172112 5.228451 -35.922110 0.076095 1.022934 -8.508543 0.000002 -0.000000 0.000002 1.240677 3.960591 -37.614719 0.031445 0.658733 -5.466958 0.000002 0.000000 -0.000000 2.924237 5.999563 -39.753122 -0.014046 -3.871567 -2.024928 0.000001 0.000001 -0.000002 0.000000 -0.000000 -0.000002 -1.539470 -18.985025 -1.542443 -19.551719 16.238293 19.702620 0.000042 111.666940 -0.000037 38.976871 -18.539988 -66.690411 -10.134162 -4.890465 -6.105459 12.077565 -26.897736 1.394603 0.000001 0.000000 0.000000 8.158136 -14.734849 32.249640 1.292526 -4.042771 35.446944 -0.000000 0.000000 0.000002 9.635245 -17.816279 30.733782 1.303214 -4.057681 35.598266 -0.000000 0.000002 0.000000 7.955382 -14.832668 31.257787 0.952382 -3.517520 30.291325 -0.000000 0.000000 0.000002 9.717528 -19.857484 27.620202 0.882608 -3.395486 29.133991 -0.000001 -0.000001 0.000000 -0.000001 0.000002 0.000002 -0.000001 0.000000 -0.000001 -0.000001 0.000000 -0.000001 -0.000001 0.000000 -0.000001 -0.000001 0.000000 -0.000001 -0.000001 0.000000 -0.000001 -0.000004 -0.000001 0.000000 -0.000001 0.000000 -0.000001 -0.000001 0.000000 -0.000001 -0.000004 -0.000001 0.000000 -0.000001 0.000001 0.000001 -0.000001 0.000001 0.000001 0.000001 -0.000000 0.000000 
0.442084 73.594170 169.626266 29.750053 15.099334 -0.966629 0.000001 0.000000 0.000000 -0.466868 9.951823 0.010229 4.305546 -9.785807 3.416312 -15.148009 -13.271187 -7.083329 0.000000 0.000000 -0.000000 0.000000 0.000000 0.000000 0.000000 0.000000 -0.000000 -64.750583 0.563691 -7.495659 58.299537 -9.232734 1.871862 -22.115821 -6.722038 1.642762 -0.000000 -0.000000 0.000000 -0.000000 -0.000000 0.000000 0.000001 0.000000 0.000000 9.898068 2.028975 1.854623 0.095174 0.432134 -0.664244 0.100020 0.420191 -0.672748 -3.404825 -2.119018 -1.939422 -10.421909 -15.705024 10.484348 0.000002 0.000000 0.000000 0.000002 0.000000 0.000000 0.000002 0.000000 0.000000 -0.177354 14.879815 -4.930522 -59.005239 -66.951597 -55.762952 0.000164 -82.492682 0.000176 40.541684 24.344001 49.908991 -3.542615 1.125168 4.168466 4.072520 8.611106 0.629666 -0.000001 -0.000000 -0.000002 -0.932352 0.251439 -30.311638 0.166416 1.507687 -12.597519 -0.000000 0.000000 -0.000004 1.653522 4.610633 -32.283405 0.054844 0.869140 -7.221745 0.000000 -0.000001 -0.000005 0.950795 3.537108 -35.167790 0.015384 0.461027 -3.822888 -0.000000 0.000002 -0.000000 2.945749 6.011595 -39.996164 -0.014712 -3.891638 -1.858710 -0.000001 0.000001 -0.000000 -0.000002 -0.000001 -0.000002 -1.490192 -18.460499 -1.543684 -18.249810 15.966539 19.902270 0.000004 112.742975 0.000001 39.434818 -18.904767 -66.261871 -10.283270 -4.639727 -6.105402 12.186570 -27.132722 1.423912 -0.000001 0.000001 0.000001 7.786739 -14.407820 31.631566 1.288694 -4.037408 35.392626 -0.000000 0.000000 0.000002 9.409922 -17.553933 30.532558 1.302128 -4.056196 35.582974 0.000000 0.000000 0.000003 7.753036 -14.558103 31.137596 0.951538 -3.516067 30.277453 -0.000001 -0.000001 0.000004 9.661935 -19.794307 27.560542 0.883207 -3.396559 29.144164 0.000001 -0.000000 -0.000002 -0.000000 0.000001 -0.000000 0.000000 0.000000 -0.000000 0.000000 0.000000 -0.000000 0.000000 0.000000 -0.000000 0.000000 0.000000 -0.000000 0.000000 0.000000 -0.000001 -0.000005 0.000000 -0.000000 0.000000 0.000000 -0.000000 0.000000 0.000000 -0.000001 -0.000005 0.000000 -0.000000 -0.000002 0.000000 -0.000000 -0.000002 0.000000 -0.000000 0.000001 0.000000 0.000000 
